HIERARCHY
ROOT pelvis
{
  OFFSET 0 100 0
  CHANNELS 6 Xposition Yposition Zposition Zrotation Xrotation Yrotation
  JOINT pelvis_right_femur
  {
    OFFSET -10.78128 -3.44521 -0.5502486
    CHANNELS 3 Zrotation Xrotation Yrotation
    JOINT right_femur_tibia
    {
      OFFSET -0.8047443 -44.0398 -0.1307829
      CHANNELS 3 Zrotation Xrotation Yrotation
      JOINT right_tibia_foot
      {
        OFFSET 3.006224 -47.83518 -5
        CHANNELS 3 Zrotation Xrotation Yrotation
        End Site
        {
          OFFSET 0 -5 15
        }
      }
    }
  }
  JOINT pelvis_left_femur
  {
    OFFSET 10.78128 -3.44521 -0.5502486
    CHANNELS 3 Zrotation Xrotation Yrotation
    JOINT left_femur_tibia
    {
      OFFSET 0.8047443 -44.0398 -0.1307829
      CHANNELS 3 Zrotation Xrotation Yrotation
      JOINT left_tibia_foot
      {
        OFFSET -4.370144 -48.10324 -4.275266
        CHANNELS 3 Zrotation Xrotation Yrotation
        End Site
        {
          OFFSET 0 -5 15
        }
      }
    }
  }
  JOINT pelvis_spine1
  {
    OFFSET 0 6.468898 -3.129235
    CHANNELS 3 Zrotation Xrotation Yrotation
    JOINT spine1
    {
      OFFSET 0 23.15396 4.99043
      CHANNELS 3 Zrotation Xrotation Yrotation
      JOINT spine2
      {
        OFFSET 0 20.79997 -5.064912
        CHANNELS 3 Zrotation Xrotation Yrotation
        JOINT neck
        {
          OFFSET 0 14.38658 9.616178
          CHANNELS 3 Zrotation Xrotation Yrotation
          End Site
          {
            OFFSET 0 20 0
          }
        }
      }
      JOINT right_manubrium
      {
        OFFSET -5.722621 16.35077 3.967754
        CHANNELS 3 Zrotation Xrotation Yrotation
        JOINT right_clavicle
        {
          OFFSET -13.16364 1.694482 -4.693211
          CHANNELS 3 Zrotation Xrotation Yrotation
          JOINT right_humerus
          {
            OFFSET -28.5034 -0.3100689 -2.792744
            CHANNELS 3 Zrotation Xrotation Yrotation
            JOINT right_radius
            {
              OFFSET -25.15693 0.02248979 -1.271978
              CHANNELS 3 Zrotation Xrotation Yrotation
              End Site
              {
                OFFSET -15 0 0
              }
            }
          }
        }
      }
      JOINT left_manubrium
      {
        OFFSET 5.722621 16.35077 3.967754
        CHANNELS 3 Zrotation Xrotation Yrotation
        JOINT left_clavicle
        {
          OFFSET 13.16364 1.694482 -4.693211
          CHANNELS 3 Zrotation Xrotation Yrotation
          JOINT left_humerus
          {
            OFFSET 29.39168 -1.063119 -2.237045
            CHANNELS 3 Zrotation Xrotation Yrotation
            JOINT left_radius
            {
              OFFSET 24.59957 -0.9528479 0.9047498
              CHANNELS 3 Zrotation Xrotation Yrotation
              End Site
              {
                OFFSET 15 -0 -0
              }
            }
          }
        }
      }
    }
  }
}
MOTION
Frames: 20
Frame Time: 0.0416666666667
23.02815 105.0951 231.6044 1.600673 -7.618409 1.834198 0.9946381 12.37471 6.067167 5.200763e-09 39.21527 -8.719613e-10 -0.774723 -8.836456 -3.816001 -3.189212 -15.72912 -9.31336 3.175953e-09 22.03032 1.382455e-08 -5.96183 -9.561502 20.17832 -1.969673 0.0661761 7.010787 -1.344847 9.645635 -3.479444 2.170012 22.87573 5.255489 2.67107 -16.98904 6.750232 2.363577 -20.44651 10.72829 82.89658 25.79573 -7.960177 1.07386e-11 -4.73274e-10 21.88494 -20.85521 10.23237 12.10072 4.183823 -15.6928 -2.985144 -94.72652 27.23474 25.43635 7.117119e-10 8.25442e-10 -9.473855 -3.601471 8.355412 18.51521
24.01783 105.6499 237.2844 1.949394 -7.999985 2.207985 0.2791654 10.03975 6.336756 5.535304e-09 44.03198 -1.247592e-09 0.3501358 -7.284853 -4.769485 -4.027937 -12.51557 -9.841346 -1.654167e-10 21.64036 1.428914e-08 -6.657562 -10.846 19.93893 -2.351909 0.3275147 6.560138 -1.448486 9.27748 -3.573724 2.292457 23.14812 5.468498 2.773733 -16.43972 6.978607 2.744014 -19.28267 10.45567 83.47383 25.9283 -8.725641 -4.975559e-10 -8.195227e-10 20.84376 -20.87075 10.00052 11.78844 4.31663 -15.41724 -2.990107 -93.98299 28.21396 23.41682 1.0406e-09 7.811334e-10 -9.844687 -4.171725 7.517585 19.35131
25.01058 106.3763 243.009 2.291652 -8.171838 2.794549 -0.3548171 6.576066 6.441476 5.903357e-09 48.64115 -1.829959e-09 1.310084 -5.604975 -5.722146 -4.971431 -8.335614 -10.59881 -4.119171e-09 20.42857 1.392463e-08 -7.049003 -12.51728 19.6568 -2.763928 0.520665 5.974217 -1.454078 8.89989 -3.808504 2.376455 23.38827 5.755762 2.895638 -16.09155 7.269554 3.156111 -18.07574 10.18025 84.21246 26.21273 -9.863212 -1.00658e-09 -1.117739e-09 19.51716 -20.63973 9.740957 11.33169 4.523434 -15.32881 -3.023086 -93.04757 29.1789 21.11734 1.252236e-09 6.318017e-10 -10.5812 -4.496031 6.936479 19.88236
25.99122 107.205 248.6734 2.509982 -7.978439 3.524181 -0.6597715 2.248036 6.334406 5.814268e-09 51.32586 -2.225209e-09 1.796629 -4.207802 -6.451755 -5.763735 -3.754951 -11.39683 -7.658478e-09 19.0985 1.239772e-08 -7.051882 -14.18255 19.27149 -3.077421 0.5894685 5.335478 -1.296213 8.583771 -4.198596 2.386319 23.4634 6.057724 3.018398 -16.05633 7.541579 3.535573 -16.97486 9.956463 84.82507 26.66413 -11.31372 -1.384956e-09 -1.264455e-09 17.95002 -20.01526 9.526407 10.69051 4.770673 -15.52521 -3.077094 -91.77303 29.89624 18.75556 1.292707e-09 4.19136e-10 -11.78331 -4.413246 6.783561 19.84042
26.95389 108.0277 254.2413 2.591946 -7.642223 4.342775 -0.6576412 -2.257017 5.939089 5.340181e-09 52.04052 -2.365678e-09 1.695446 -2.968466 -6.902245 -6.295656 0.663003 -12.06625 -1.055265e-08 17.78634 1.003717e-08 -6.684792 -15.67712 18.87579 -3.2319 0.5281709 4.714242 -1.051341 8.453115 -4.672422 2.35422 23.4756 6.308247 3.107272 -16.3068 7.777662 3.683599 -16.21413 9.833562 85.71522 26.92387 -12.99015 -1.646319e-09 -1.314732e-09 16.34868 -19.3625 9.39194 10.06395 5.0462 -16.08535 -3.238705 -90.58025 30.16219 16.70981 1.220988e-09 1.604383e-10 -13.31743 -3.899266 7.168342 19.21949
27.88311 108.7431 259.5904 2.468543 -6.969645 5.161087 -0.3311648 -6.784753 5.324504 4.439201e-09 50.1125 -2.266652e-09 0.9151739 -2.170158 -6.877158 -6.52422 4.599196 -12.65763 -1.253265e-08 16.13103 6.710208e-09 -5.785188 -16.84286 18.44284 -3.216287 0.2982005 4.129682 -0.6746685 8.433171 -5.206043 2.241508 23.21659 6.484238 3.147825 -16.84663 7.918153 3.636246 -15.78382 9.774041 86.03692 27.13005 -14.5461 -1.685859e-09 -1.196377e-09 14.77429 -18.40057 9.291691 9.366926 5.302948 -16.86579 -3.424412 -88.94712 29.92858 15.01069 9.299427e-10 -1.415043e-10 -15.0083 -2.889576 8.075371 17.85283
28.75101 109.2819 264.7297 2.201599 -6.273974 5.93414 0.2460596 -11.13067 4.574111 3.11459e-09 46.27613 -1.875354e-09 -0.3231995 -1.571041 -6.635031 -6.489124 8.079218 -13.02298 -1.355502e-08 15.2884 3.061969e-09 -4.770102 -17.64199 17.94046 -3.024441 -0.01005536 3.608887 -0.2462986 8.578429 -5.773175 2.11239 22.89845 6.572256 3.150455 -17.52507 7.98443 3.374478 -15.59745 9.803078 86.50433 27.09722 -16.21759 -1.62589e-09 -1.019844e-09 13.17213 -17.48031 9.288429 8.68996 5.548833 -17.91394 -3.699669 -87.35788 29.29112 13.59195 6.236884e-10 -4.079034e-10 -16.94809 -1.547061 9.274721 16.05098
29.53347 109.6414 269.7033 1.855903 -5.654535 6.623731 0.9682822 -15.08127 3.832309 1.589408e-09 41.33765 -1.359171e-09 -1.755811 -1.148495 -6.315959 -6.277051 11.03604 -13.16625 -1.364261e-08 15.53559 -4.378249e-10 -3.865695 -18.08691 17.37347 -2.709904 -0.3315522 3.174661 0.1876783 8.833678 -6.332107 1.990847 22.58624 6.588263 3.130834 -18.22002 7.989223 2.993929 -15.54129 9.896336 87.13955 26.88231 -17.93159 -1.517791e-09 -8.286671e-10 11.60003 -16.67656 9.374827 8.055871 5.766483 -19.09386 -4.025356 -85.94917 28.43524 12.4037 3.774977e-10 -6.01289e-10 -19.00095 -0.07448674 10.51105 14.10686
30.21223 109.8376 274.4969 1.459572 -4.987416 7.209475 1.726512 -18.76473 3.200011 1.134952e-10 35.92528 -9.669364e-10 -3.205767 -0.9612344 -5.929253 -5.995937 13.62987 -13.25963 -1.321897e-08 16.12284 -3.828805e-09 -3.003723 -18.33577 16.77049 -2.366475 -0.6544819 2.792777 0.6356388 9.06744 -6.86761 1.858669 22.1954 6.576971 3.104394 -18.89181 7.948137 2.639034 -15.4854 9.987248 87.44128 26.73754 -19.48837 -1.350155e-09 -6.059222e-10 10.09068 -15.78237 9.463271 7.395423 5.945417 -20.20383 -4.307632 -84.42184 27.52517 11.30906 1.206973e-10 -7.487406e-10 -20.97247 1.417637 11.64255 12.12719
30.78671 109.9137 279.1741 1.107433 -4.460009 7.696481 2.441124 -21.76012 2.787829 -1.264353e-09 30.99005 -6.08784e-10 -4.382073 -0.9288294 -5.66191 -5.709367 15.6601 -13.22397 -1.220989e-08 17.59144 -6.508217e-09 -2.494507 -18.3518 16.16141 -2.033938 -0.8949293 2.51149 1.01895 9.268002 -7.318456 1.757069 21.86546 6.544623 3.086214 -19.40031 7.879955 2.372358 -15.36214 10.07577 87.70509 26.63716 -20.86129 -1.202433e-09 -4.168843e-10 8.757244 -15.02011 9.578369 6.798453 6.074299 -21.13888 -4.536056 -83.13416 26.74821 10.32626 -1.852345e-11 -8.047823e-10 -22.71936 2.633525 12.44744 10.5242
31.28179 109.9439 283.8255 0.8906979 -4.172506 8.115983 2.969054 -23.90033 2.624953 -2.385105e-09 27.63148 -2.712619e-10 -5.041426 -0.8854838 -5.632419 -5.521777 17.17647 -13.09617 -1.108082e-08 19.63149 -8.169245e-09 -2.445062 -18.26571 15.61626 -1.789181 -1.001438 2.322269 1.275725 9.38849 -7.636725 1.709868 21.67644 6.518043 3.087942 -19.6465 7.820948 2.251684 -15.10529 10.13107 88.01388 26.58151 -21.95967 -1.147477e-09 -3.112384e-10 7.686871 -14.51037 9.689028 6.3276 6.156028 -21.77254 -4.690709 -82.21646 26.27753 9.398455 3.579678e-12 -7.839184e-10 -24.057 3.343971 12.80912 9.593654
31.75091 110.0332 288.6232 0.9213012 -4.338292 8.525514 3.188427 -24.91223 2.725483 -3.196636e-09 26.93048 2.097587e-10 -4.930092 -0.6023449 -6.02358 -5.517208 18.16704 -12.8097 -1.010467e-08 22.53167 -8.307724e-09 -3.108028 -18.13226 15.18555 -1.676478 -0.8999859 2.239408 1.322268 9.438943 -7.773523 1.76275 21.79385 6.508654 3.121757 -19.5068 7.80798 2.293501 -14.66638 10.15209 88.7935 26.43493 -22.80999 -1.295475e-09 -3.65101e-10 6.947907 -14.52731 9.820527 6.089999 6.196563 -22.05389 -4.794686 -82.03191 26.2853 8.48808 3.094562e-10 -6.743557e-10 -24.88986 3.294743 12.59864 9.697844
32.23982 110.2807 293.6599 1.101844 -4.740367 8.927577 3.274215 -24.59463 3.091016 -3.839473e-09 27.5884 8.637125e-10 -4.29613 -0.497655 -6.608856 -5.560048 18.1511 -12.33884 -8.689027e-09 26.26032 -7.234813e-09 -4.272088 -17.68838 14.84516 -1.626074 -0.6563201 2.318564 1.224643 9.421426 -7.730306 1.869182 22.03203 6.477191 3.16758 -19.08128 7.770639 2.48059 -14.16004 10.15033 89.45032 26.35743 -23.20652 -1.501547e-09 -4.833241e-10 6.629755 -14.82599 9.978216 6.026068 6.161106 -21.96828 -4.800221 -82.25933 26.61726 7.809011 7.889139e-10 -4.615061e-10 -25.16671 2.662146 11.92375 10.55143
32.77714 110.7522 299.0086 1.344151 -5.278405 9.285438 3.410728 -22.94194 3.700874 -4.508767e-09 28.42335 1.733783e-09 -3.417583 -0.8417378 -7.246146 -5.514654 16.87309 -11.64434 -6.197873e-09 31.25821 -5.37925e-09 -5.819156 -16.74895 14.59984 -1.551955 -0.3256599 2.609165 1.044348 9.415339 -7.553713 2.00379 22.35234 6.399791 3.221348 -18.51913 7.678536 2.759062 -13.73686 10.19198 90.06984 26.38003 -23.25913 -1.67035e-09 -6.073277e-10 6.750059 -15.33268 10.22927 6.117466 6.047588 -21.6724 -4.725348 -83.02901 27.13971 7.60589 1.396441e-09 -1.218133e-10 -25.06173 1.660208 10.93604 11.89916
33.38567 111.4567 304.6283 1.545591 -5.717278 9.53874 3.633176 -19.79714 4.479096 -5.034802e-09 28.60332 2.596175e-09 -2.582588 -1.952067 -7.626937 -5.262949 13.94348 -10.84961 -2.568372e-09 36.4866 -3.283257e-09 -7.325684 -15.26901 14.57018 -1.439548 -0.004667674 3.140501 0.8392342 9.413774 -7.241665 2.110428 22.5839 6.265137 3.26327 -17.98495 7.500528 3.092902 -13.60644 10.28592 90.08882 26.66784 -22.68942 -1.65129e-09 -6.499702e-10 7.508006 -15.82513 10.52903 6.360186 5.836396 -21.14053 -4.520633 -84.15426 27.6882 8.251366 1.931402e-09 3.122241e-10 -24.40398 0.5223518 9.836892 13.39842
34.07115 112.3205 310.4188 1.634306 -5.979797 9.637512 3.906366 -15.76406 5.154938 -5.260069e-09 27.70252 3.216347e-09 -2.102664 -3.559345 -7.595046 -4.782705 9.892552 -10.06049 1.666955e-09 40.76173 -1.640717e-09 -8.388249 -13.51577 14.76221 -1.27223 0.2107117 3.80354 0.6556061 9.466354 -6.860175 2.163309 22.66142 6.074829 3.265225 -17.62357 7.258627 3.318101 -13.88771 10.43069 89.50987 27.02387 -21.58989 -1.433963e-09 -5.956505e-10 8.7487 -16.24685 10.82563 6.731522 5.569524 -20.55644 -4.267999 -85.39062 27.99758 9.699486 2.261596e-09 7.40787e-10 -23.35721 -0.4023395 8.977356 14.58289
34.83012 113.2907 316.3688 1.67145 -6.239238 9.570654 4.18304 -11.36265 5.72228 -5.336453e-09 26.38159 3.735121e-09 -1.818634 -5.292819 -7.401678 -4.166089 5.399252 -9.236746 6.245219e-09 44.70874 -4.163233e-10 -9.26857 -11.68863 15.0978 -1.068559 0.3769776 4.526772 0.4710521 9.600143 -6.46301 2.203604 22.75416 5.861854 3.251321 -17.37804 7.010114 3.446357 -14.42127 10.63503 89.04126 27.28616 -20.3806 -1.154698e-09 -5.124487e-10 10.20859 -16.76793 11.15211 7.215188 5.295186 -20.05151 -4.039144 -86.97219 28.15486 11.59554 2.519726e-09 1.161233e-09 -22.22377 -1.194095 8.293579 15.61943
35.65851 114.2514 322.2992 1.581887 -6.223152 9.339582 4.383569 -6.980484 5.994562 -4.869654e-09 24.54651 3.760969e-09 -1.964493 -7.08567 -6.764046 -3.479669 0.7449712 -8.657356 9.911826e-09 45.82192 4.282288e-10 -9.321823 -10.12109 15.61631 -0.8899653 0.3677665 5.203447 0.3377981 9.738297 -6.05992 2.166339 22.63083 5.64774 3.184849 -17.39026 6.764423 3.407531 -15.33495 10.82459 87.85594 27.51892 -18.7043 -7.277073e-10 -3.330968e-10 11.94315 -17.08884 11.34364 7.762281 5.025865 -19.55025 -3.802465 -88.23326 27.96647 13.97507 2.421222e-09 1.4266e-09 -20.77118 -1.577167 8.115091 16.04785
36.57351 115.038 328.0818 1.436378 -6.106868 9.001896 4.432134 -2.84498 5.850137 -3.730554e-09 23.05231 3.284256e-09 -2.526515 -8.509423 -5.787401 -2.857745 -3.654836 -8.387636 1.15531e-08 43.50141 1.582594e-09 -8.500685 -9.106729 16.35903 -0.7694726 0.178453 5.771081 0.2063042 9.949745 -5.665316 2.081859 22.4585 5.454335 3.060147 -17.68137 6.592097 3.090734 -16.70963 11.01086 86.63439 27.41827 -16.76395 -2.597621e-10 -1.309802e-10 13.92323 -17.49151 11.39416 8.489368 4.812821 -19.18661 -3.658489 -89.54622 27.41645 16.83984 2.000055e-09 1.458407e-09 -19.06952 -1.512088 8.584948 15.881
37.5896 115.5343 333.5965 1.252559 -5.867815 8.609098 4.37072 0.8778013 5.402024 -2.069229e-09 21.99234 2.399286e-09 -3.390989 -9.618791 -4.561794 -2.370177 -7.645526 -8.449456 1.14374e-08 38.21034 2.948723e-09 -6.945838 -8.619059 17.26592 -0.7201988 -0.159106 6.22105 0.08890259 10.19096 -5.296454 1.953682 22.23729 5.299642 2.896619 -18.2096 6.493751 2.588137 -18.40725 11.17095 85.37882 27.10242 -14.66805 2.315102e-10 9.937661e-11 16.05002 -17.89111 11.3076 9.322224 4.656849 -18.92278 -3.576336 -90.81768 26.60289 19.98263 1.305749e-09 1.269904e-09 -17.1971 -1.077001 9.567837 15.22829
